# xmcd
#
# Track frame offsets: 
#        150
#        21929
#        46901
#        69412
#        90403
#        112078
#        138145
#        159119
#        180336
#        201162
#
# Disc length: 3097 seconds
#
# Revision: 0
# Processed by: cddbd v1.5.2PL0 Copyright (c) Steve Scherf et al.
# Submitted via: ExactAudioCopyFreeDBPlugin 1.0
#
DISCID=760c170a
DTITLE=Various Artist - Tinh khuc Phu Quang 5
DYEAR=1900
DGENRE=
TTITLE0=Hong Nhung - Ve lai pho xua
TTITLE1=Quang Ly - Hanoi ngay tro ve
TTITLE2=Ngoc Anh - Chieu hoang
TTITLE3=Phu Quang - Catinat cafe sang
TTITLE4=My Hanh - Chieu khong em
TTITLE5=Ngoc Anh - Im lang dem Hanoi
TTITLE6=Thanh Long - The roi
TTITLE7=Thanh Lam - Trong mien ky uc
TTITLE8=Ngoc Anh - Lang thang
TTITLE9=Phu Quang - Ngon nen
EXTD=
EXTT0=
EXTT1=
EXTT2=
EXTT3=
EXTT4=
EXTT5=
EXTT6=
EXTT7=
EXTT8=
EXTT9=
PLAYORDER=
